<svg xmlns="http://www.w3.org/2000/svg" viewBox="0 0 10 6.23"><defs><style>.cls-1{fill:#606060;}</style></defs><title>ico-hotels</title><g id="Layer_2" data-name="Layer 2"><g id="Layer_1-2" data-name="Layer 1"><path class="cls-1" d="M1.28,3.26a.47.47,0,0,0,.48.47H9.68A.31.31,0,0,1,10,4V6.15a.09.09,0,0,1-.08.08H8.81a.09.09,0,0,1-.08-.08v-.7A.48.48,0,0,0,8.26,5H1.73a.49.49,0,0,0-.48.48v.7a.09.09,0,0,1-.07.08H.08A.09.09,0,0,1,0,6.15V.31A.31.31,0,0,1,.31,0H.93a.29.29,0,0,1,.22.09.31.31,0,0,1,.09.22V3.26ZM3.6,3.15A1.25,1.25,0,0,0,4.07,2a1.23,1.23,0,0,0-.26-.62A1.26,1.26,0,0,0,2.69.94a1.2,1.2,0,0,0-.62.26A1.24,1.24,0,0,0,1.86,3,1.27,1.27,0,0,0,3,3.41,1,1,0,0,0,3.6,3.15Zm6.4,0h0a2,2,0,0,0-.7-1.54,1.79,1.79,0,0,0-1.17-.41H4.7a.31.31,0,0,0-.31.31V3a.4.4,0,0,0,.4.4h5A.21.21,0,0,0,10,3.19Z"/></g></g></svg>