<svg xmlns="http://www.w3.org/2000/svg" viewBox="0 0 30 29.5"><defs><style>.cls-1{fill:#710e0e;}.cls-2{fill:#fff;}</style></defs><title>map-hotels</title><g id="Layer_2" data-name="Layer 2"><g id="Layer_1-2" data-name="Layer 1"><rect class="cls-1" width="30" height="26"/><polygon class="cls-1" points="15 29.5 0 12 15 1 30 12 15 29.5"/><path class="cls-2" d="M7.56,13.28a1,1,0,0,0,1,1H24.35a.61.61,0,0,1,.62.62v4.21a.16.16,0,0,1-.15.16h-2.2a.17.17,0,0,1-.15-.16V17.68a1,1,0,0,0-1-1h-13a1,1,0,0,0-1,1v1.39a.17.17,0,0,1-.16.16H5.16A.17.17,0,0,1,5,19.07V7.39a.61.61,0,0,1,.62-.62H6.86a.61.61,0,0,1,.62.62v5.89Zm4.65-.2a2.52,2.52,0,0,0,.93-2.25,2.27,2.27,0,0,0-.52-1.24,2.5,2.5,0,0,0-2.25-.93,2.3,2.3,0,0,0-1.24.52,2.47,2.47,0,0,0-.93,2.24,2.39,2.39,0,0,0,.52,1.24,2.51,2.51,0,0,0,2.25.93A2.06,2.06,0,0,0,12.21,13.08ZM25,13.16h0a4,4,0,0,0-1.4-3.08,3.62,3.62,0,0,0-2.35-.83H14.41a.55.55,0,0,0-.44.18.57.57,0,0,0-.18.44v2.92a.8.8,0,0,0,.8.8h9.94A.43.43,0,0,0,25,13.16Z"/></g></g></svg>