<svg xmlns="http://www.w3.org/2000/svg" viewBox="0 0 30 29.5"><defs><style>.cls-1{fill:#710e0e;}.cls-2{fill:#fff;}</style></defs><title>map-attractions</title><g id="Layer_2" data-name="Layer 2"><g id="Layer_1-2" data-name="Layer 1"><rect class="cls-1" width="30" height="26"/><polygon class="cls-1" points="15 29.5 0 12 15 1 30 12 15 29.5"/><path class="cls-2" d="M22.88,9.57,15.12,5.11a.21.21,0,0,0-.24,0L7.12,9.57A.27.27,0,0,0,7,9.78v.59a.25.25,0,0,0,.25.25h15.5a.25.25,0,0,0,.25-.25V9.78A.27.27,0,0,0,22.88,9.57ZM15,9.41a1.26,1.26,0,1,1,1.26-1.26A1.27,1.27,0,0,1,15,9.41Z"/><path class="cls-2" d="M8.88,11.35v6.56H8.14a.15.15,0,0,0-.14.14v.82a.15.15,0,0,0,.14.14H21.86a.14.14,0,0,0,.14-.14v-.82a.14.14,0,0,0-.14-.14h-.74V11.35Zm4.95,6.56H11.18V14.07a1.32,1.32,0,1,1,2.63,0l0,3.84Zm5,0H16.17V14.07a1.32,1.32,0,1,1,2.63,0l0,3.84Z"/><path class="cls-2" d="M7.11,19.88v.91a.14.14,0,0,0,.14.14H22.77a.14.14,0,0,0,.14-.14v-.91a.14.14,0,0,0-.14-.14H7.23C7.16,19.74,7.11,19.79,7.11,19.88Z"/></g></g></svg>