<svg xmlns="http://www.w3.org/2000/svg" viewBox="0 0 10 10"><defs><style>.cls-1{fill:#606060;}</style></defs><title>ico-restaurants</title><g id="Layer_2" data-name="Layer 2"><g id="Layer_1-2" data-name="Layer 1"><path class="cls-1" d="M3.82,6.17h0a2.32,2.32,0,0,1-.64-.11A25.13,25.13,0,0,0,.36,8.52C0,9-.13,9.49.19,9.81S1,10,1.48,9.64A40.62,40.62,0,0,0,4.57,6.09L4.52,6A2,2,0,0,1,3.82,6.17Z"/><path class="cls-1" d="M5.38,4,6,4.61h.06a1.39,1.39,0,0,0,1.61-.3L9.91,2a.28.28,0,0,0,0-.37.26.26,0,0,0-.37,0h0l-2,2a.3.3,0,0,1-.37,0,.28.28,0,0,1,0-.38l0,0,2-2a.28.28,0,0,0,0-.36A.28.28,0,0,0,8.8.82l0,0-2,2a.28.28,0,0,1-.36,0,.28.28,0,0,1,0-.38l0,0,2-2a.28.28,0,0,0,0-.37A.27.27,0,0,0,8,.07H8L5.67,2.32a1.39,1.39,0,0,0-.3,1.61A.18.18,0,0,1,5.38,4Z"/><path class="cls-1" d="M9.8,9,1,.21C.59-.18,0,0,0,.68A5.59,5.59,0,0,0,1.79,4.47a4.23,4.23,0,0,0,1.28,1,1.49,1.49,0,0,0,1.36.08.33.33,0,0,1,.4.12A27.61,27.61,0,0,0,8.88,9.78C9.76,10.41,10.32,9.57,9.8,9Z"/></g></g></svg>