<svg xmlns="http://www.w3.org/2000/svg" viewBox="0 0 30 29.5"><defs><style>.cls-1{fill:#710e0e;}.cls-2{fill:#fff;}</style></defs><title>map-restaurant</title><g id="Layer_2" data-name="Layer 2"><g id="Layer_1-2" data-name="Layer 1"><rect class="cls-1" width="30" height="26"/><polygon class="cls-1" points="15 29.5 0 12 15 1 30 12 15 29.5"/><path class="cls-2" d="M13.35,14.63h0a2.75,2.75,0,0,1-.9-.16A38.13,38.13,0,0,0,8.5,17.93c-.53.68-.69,1.35-.23,1.8s1.11.3,1.8-.23a57.32,57.32,0,0,0,4.32-5s0,0-.06-.06A2.93,2.93,0,0,1,13.35,14.63Z"/><path class="cls-2" d="M15.53,11.58l.87.87.08,0a2,2,0,0,0,2.25-.42l3.15-3.27a.38.38,0,0,0,0-.51.37.37,0,0,0-.53,0l0,0L18.5,11.08a.4.4,0,0,1-.51.05.39.39,0,0,1-.07-.53l0,0L20.8,7.72a.4.4,0,0,0,.05-.51.39.39,0,0,0-.53-.06l0,0L17.44,10a.4.4,0,0,1-.51,0,.38.38,0,0,1-.06-.53l0,0,2.84-2.86a.38.38,0,0,0,0-.51.37.37,0,0,0-.53,0l0,0-3.3,3.14a2,2,0,0,0-.42,2.25A.17.17,0,0,1,15.53,11.58Z"/><path class="cls-2" d="M21.72,18.66,9.37,6.29C8.83,5.75,8,6,8,7c0,1.4.58,3.23,2.5,5.3a6.09,6.09,0,0,0,1.79,1.48,2.16,2.16,0,0,0,1.92.11.46.46,0,0,1,.56.17,38.57,38.57,0,0,0,5.66,5.68C21.66,20.57,22.45,19.39,21.72,18.66Z"/></g></g></svg>